<?xml version="1.0"?>
<svg viewBox="0 0 847 847" xmlns="http://www.w3.org/2000/svg">
<defs>

  <style><![CDATA[
    .sprite { display: none; }
    .sprite:target { display: inline; }
  ]]></style>

</defs>



<g class="sprite" id="Red1">
  <path d="M384 775c-186,-144 -344,-202 -373,-456 -12,-101 67,-228 172,-237 75,-7 122,18 165,73l61 151 -104 203 118 123 -39 143zm84 -594c50,-85 99,-125 190,-121 105,6 181,140 177,242 -9,232 -199,316 -396,492 -4,-5 -9,-10 -14,-15l60 -152 -89 -140 110 -179 -38 -127z"  fill="Red" />
</g>

<g class="sprite" id="Red2">
  <path d="M423 23c221,0 401,179 401,400 0,221 -180,401 -401,401 -221,0 -400,-180 -400,-401 0,-221 179,-400 400,-400zm-46 263l-262 -36 230 133 36 -97c15,0 86,0 93,0l38 97 230 -133 -265 36c0,0 -96,0 -100,0zm-239 221l63 167 74 -104 107 157 110 -137 100 140 143 -247 -150 140 -113 -113 -94 127 -100 -140 -70 73 -70 -63z"  fill="Red" />
</g>

<g class="sprite" id="Red3">
  <path d="M424 28c219,0 406,213 397,400 -17,190 -46,182 -76,241 0,0 -34,-24 -42,-34 -34,-35 -94,-108 -280,-100 -186,9 -250,134 -250,134 0,0 120,-73 263,-76 110,-3 222,27 267,42 5,8 32,27 42,34 -73,91 -149,154 -321,154 -173,0 -397,-178 -397,-397 0,-220 177,-398 397,-398zm269 356c-21,40 -77,125 -19,131 69,7 46,-73 19,-131 0,-26 -3,-56 -3,-88 2,-5 1,-10 -5,-12 -5,-19 -52,-27 -109,-44 -55,-16 -101,-35 -118,-25 -6,0 -82,2 -83,2 -11,-20 -56,10 -117,32 -63,23 -119,30 -110,55 9,24 67,25 130,1 52,-19 90,-64 97,-88 29,-1 58,-2 81,-2 4,24 45,72 99,87 54,16 114,7 135,-6 0,29 3,62 3,88z"  fill="Red" />
</g>

<g class="sprite" id="Red5m">
  <path d="M262 262c-88,9 -153,89 -145,178 9,89 89,153 178,145 89,-9 153,-89 145,-178 -9,-88 -89,-153 -178,-145zm424 201c-49,0 -89,40 -89,89 0,49 40,88 89,88 48,0 88,-39 88,-88 0,-49 -40,-89 -88,-89zm0 -59c-82,0 -148,71 -148,148 0,76 50,130 117,144l0 21 -31 0 0 51 31 0 0 33 60 0 0 -33 31 0 0 -51 -31 0 0 -21c67,-14 118,-68 118,-144 0,-77 -66,-148 -147,-148zm-434 -248c-148,14 -256,146 -241,294 14,148 146,256 294,241 148,-14 256,-146 241,-294 -5,-52 -25,-99 -55,-138l58 -68 45 38 11 -196 -191 43 45 38 -59 70c-44,-23 -95,-34 -148,-28z" fill="Red" fill-rule="evenodd" />
</g>

<g class="sprite" id="Red5f">
  <path d="M626 550c-54,6 -93,54 -88,108 6,54 54,93 108,88 54,-6 93,-54 88,-108 -6,-54 -54,-93 -108,-88zm-328 -409c-94,0 -170,76 -170,170 0,93 76,169 170,169 93,0 169,-76 169,-169 0,-94 -76,-170 -169,-170zm0 -112c-156,0 -282,126 -282,282 0,136 96,249 224,276l0 41 -60 0 0 98 60 0 0 62 114 0 0 -62 59 0 0 -98 -59 0 0 -41c129,-26 226,-140 226,-276 0,-156 -126,-282 -282,-282zm322 456c-90,9 -155,89 -146,179 9,90 89,155 178,146 90,-9 155,-89 147,-178 -4,-32 -16,-60 -34,-84l35 -41 28 23 6 -119 -116 26 27 23 -35 42c-27,-13 -58,-20 -90,-17z" fill="Red" fill-rule="evenodd" />
</g>

<g class="sprite" id="Red6">
  <path d="M424 312c41,-73 81,-109 163,-109 90,0 159,101 159,182 0,182 -159,255 -322,401 -163,-146 -312,-195 -323,-410 -4,-80 70,-173 160,-173 82,0 122,36 163,109zm80 433c114,90 195,12 181,-45 -26,-109 125,-126 87,-80l-16 18 79 0 -32 -70 -10 18c-44,-21 -63,-18 -111,19 -24,19 -38,39 -34,112 1,24 -63,57 -95,-15 -4,-11 -49,43 -49,43zm238 -428c14,39 70,-34 86,-90 17,-55 -23,-137 -32,-148 -4,-5 23,85 -41,124 -28,18 -68,20 -68,20 0,0 -14,8 -10,11 41,24 57,61 65,83zm-643 0c-14,39 -70,-34 -87,-90 -16,-55 23,-137 32,-148 4,-5 -23,85 42,124 28,18 68,20 68,20 0,0 14,8 9,11 -41,24 -56,61 -64,83z"  fill="Red" />
</g>

<g class="sprite" id="White1b">
  <path d="M787 187l0 135 0 0 29 0c11,0 20,12 20,27l0 153c0,15 -9,27 -20,27l-29 0 0 0 0 142c0,27 -16,49 -37,49l-702 0c-21,0 -37,-22 -37,-49l0 -484c0,-27 16,-49 37,-49l702 0c21,0 37,22 37,49zm-512 34l0 414 -187 0 0 -414 187 0zm474 -35l0 484 -698 0 0 -484 698 0z"  fill="Grey" fill-rule="evenodd" />
</g>

<g class="sprite" id="White1g">
  <path d="M787 187l0 135 0 0 29 0c11,0 21,13 21,28l0 152c0,15 -10,27 -21,27l-29 0 0 0 0 143c0,27 -16,49 -37,49l-703 0c-20,0 -37,-22 -37,-49l0 -485c0,-26 17,-48 37,-48l703 0c21,0 37,22 37,48zm-73 34l0 415 -187 0 0 -415 187 0zm-218 0l0 415 -187 0 0 -415 187 0zm-221 0l0 415 -188 0 0 -415 188 0zm474 -35l0 485 -698 0 0 -485 698 0z"  fill="Grey" fill-rule="evenodd" />
</g>

<g class="sprite" id="White2b">
  <polygon points="70,75 122,267 157,233 351,431 446,686 400,703 551,832 581,636 536,653 450,422 662,230 694,265 758,77 564,123 597,159 397,341 225,166 260,132 " fill="Grey" fill-rule="evenodd" />
</g>

<g class="sprite" id="White2g">
  <path d="M398 9l48 0 0 111c149,11 267,130 279,279l110 0 0 47 -110 0c-12,149 -130,268 -279,279l0 111 -48 0 0 -111c-148,-11 -267,-130 -279,-279l-110 0 0 -47 110 0c12,-149 131,-268 279,-279l0 -111zm48 152l0 238 238 0c-11,-127 -112,-227 -238,-238zm238 285l-238 0 0 239c126,-12 227,-112 238,-239zm-286 239l0 -239 -238 0c11,127 112,227 238,239zm-238 -286l238 0 0 -238c-126,11 -227,111 -238,238z"  fill="Grey" fill-rule="evenodd" />
</g>

<g class="sprite" id="White3b">
  <path d="M281 166c69,-15 137,-7 197,18l37 -54 28 19c39,-52 65,-89 136,-104 64,-14 93,39 99,93l3 -5 -2 22c1,10 0,20 -1,30l38 -25 -26 41 46 2 -41 20 41 27 -46 -7 24 46 -38 -32 2 52 -20 -48 -21 45 3 -52 -39 25 26 -42 -46 -1 42 -20 -41 -27 46 7 -25 -46 38 32 -2 -53 4 8c-5,-43 -22,-81 -84,-49 -40,20 -78,65 -89,78l40 27 -36 52c50,45 86,105 101,175 39,179 -75,356 -254,395 -179,38 -356,-76 -394,-255 -39,-179 75,-355 254,-394z"  fill="Grey" fill-rule="evenodd" />
</g>

<g class="sprite" id="White3g">
  <path d="M145 116c45,-3 83,18 102,8 14,-9 44,-91 98,-94 54,-3 110,36 122,91l0 0 0 0c1,8 2,17 2,26 0,54 -17,155 -28,234l61 -202 0 0c5,-15 13,-30 24,-43l0 0 0 0c21,-23 52,-41 88,-47 70,-11 118,21 123,58 4,37 -15,72 -5,86 9,11 92,23 97,67 5,45 -31,97 -86,115l0 0 0 0c-8,3 -17,5 -26,7 -57,9 -167,10 -248,13l244 76 0 0c18,5 34,14 47,26l0 0 0 0c24,22 39,54 39,90 0,71 -47,117 -92,119 -45,3 -83,-18 -102,-8 -15,8 -45,90 -99,93 -54,3 -109,-36 -121,-92l0 0 0 0c-2,-8 -3,-17 -2,-26 0,-60 22,-180 33,-262l-106 223 0 0c-7,15 -18,28 -31,39l0 0 0 0c-24,21 -57,33 -93,33 -71,0 -113,-39 -111,-77 2,-37 26,-69 18,-85 -7,-12 -87,-37 -84,-82 2,-45 46,-92 102,-101l0 0 0 0c9,-2 17,-3 26,-3 57,1 164,17 244,26l-241 -72 0 0c-18,-6 -34,-15 -47,-26l0 0 0 0c-25,-22 -40,-54 -40,-90 0,-71 47,-117 92,-120z"  fill="Grey" fill-rule="evenodd" />
</g>


<g class="sprite" id="Green1">
  <path d="M423 30c218,0 396,177 396,396 0,218 -178,395 -396,395 -219,0 -396,-177 -396,-395 0,-219 177,-396 396,-396zm128 214c36,0 65,39 65,88 0,49 -23,112 -59,112 -36,0 -72,-63 -72,-112 0,-49 29,-88 66,-88zm-256 3c36,0 65,40 65,89 0,48 -31,116 -67,116 -37,0 -64,-68 -64,-116 0,-49 29,-89 66,-89zm444 274c0,0 -87,181 -292,190 -206,10 -303,-141 -327,-165 0,0 175,76 320,72 147,-3 299,-97 299,-97z"  fill="Lime" fill-rule="evenodd" />
</g>

<g class="sprite" id="Green2">
  <path d="M423 13c227,0 410,183 410,410 0,227 -183,410 -410,410 -227,0 -410,-183 -410,-410 0,-227 183,-410 410,-410zm-9 139l32 0c3,0 6,3 6,7l0 270 17 0c3,0 6,2 6,6l0 29c0,4 -3,6 -6,6l-17 0 0 16c0,4 -3,6 -6,6l-32 0c-4,0 -6,-2 -6,-6l0 -16 -186 0c-4,0 -7,-2 -7,-6l0 -29c0,-4 3,-6 7,-6l186 0 0 -270c0,-4 2,-7 6,-7zm9 -78c193,0 349,156 349,349 0,193 -156,349 -349,349 -193,0 -349,-156 -349,-349 0,-193 156,-349 349,-349z"  fill="Lime" fill-rule="evenodd" />
</g>

<g class="sprite" id="Green3">
  <path d="M70 300l0 358 129 68 0 -365 -129 -61zm356 -224c30,-32 59,-48 119,-48 66,0 117,45 117,80 0,80 -117,113 -236,177 -119,-64 -229,-86 -237,-181 -2,-35 52,-76 118,-76 59,0 89,16 119,48zm-350 218l123 -62 134 58 -129 63 0 0 -128 -59zm187 87l150 -72 126 64 0 1 -141 69c-11,-5 -135,-61 -135,-62zm340 -38l0 0 0 -1c-1,0 -2,0 -2,-1l-100 -50 130 -58 101 46 -129 64 0 0zm-200 112l0 383 148 -80 0 -377 -148 74zm206 272l127 -69 2 -369 -129 64 0 374zm-357 27l142 75 0 -375 -142 -67 0 367z"  fill="Lime" fill-rule="evenodd" />
</g>

<g class="sprite" id="Green4m">
  <path d="M357 151c67,0 130,19 183,53l81 -79 -52 -53 245 -31 -38 244 -51 -54 -81 79c32,52 51,113 51,179 0,186 -151,338 -338,338 -186,0 -338,-152 -338,-338 0,-187 152,-338 338,-338zm0 134c112,0 203,91 203,204 0,112 -91,203 -203,203 -112,0 -203,-91 -203,-203 0,-113 91,-204 203,-204z"  fill="Lime" fill-rule="evenodd" />
</g>

<g class="sprite" id="Green4f">
  <path d="M416 13c170,0 307,137 307,307 0,149 -106,273 -246,301l0 44 65 0 0 107 -65 0 0 67 -124 0 0 -67 -65 0 0 -107 65 0 0 -44c-139,-30 -244,-153 -244,-301 0,-170 138,-307 307,-307zm0 122c102,0 185,83 185,185 0,102 -83,185 -185,185 -102,0 -185,-83 -185,-185 0,-102 83,-185 185,-185z"  fill="Lime" fill-rule="evenodd" />
</g>

<g class="sprite" id="Green6">
  <path d="M426 17c161,0 292,33 292,73 0,39 -131,72 -292,72 -161,0 -292,-33 -292,-72 0,-40 131,-73 292,-73zm-2 281c49,-83 97,-124 194,-124 107,0 191,115 191,206 0,206 -191,290 -385,455 -194,-165 -373,-222 -386,-464 -5,-91 84,-197 192,-197 97,0 145,41 194,124zm2 -260c139,0 251,23 251,51 0,27 -112,50 -251,50 -139,0 -251,-23 -251,-50 0,-28 112,-51 251,-51z" fill="Lime" fill-rule="evenodd" />
</g>


</svg>
