<?xml version="1.0"?>
<svg viewBox="0 0 4699 4699" xmlns="http://www.w3.org/2000/svg">
<defs>

  <style><![CDATA[
    .sprite { display: none; }
    .sprite:target { display: inline; }
  ]]></style>

</defs>



<g class="sprite" id="Astro">
  <path d="M3656 588c139,101 291,237 373,332 324,331 591,936 557,1424 -48,826 -286,1444 -985,1882 -760,439 -1701,439 -2462,0 -699,-438 -936,-1056 -985,-1882 -34,-488 233,-1093 557,-1424 82,-95 235,-231 373,-332 401,-279 852,-426 1286,-431l0 0 0 0 0 0 0 0c434,5 885,152 1286,431zm-1286 3929c244,0 753,-129 923,-260 -234,84 -601,130 -923,102 -322,28 -689,-18 -923,-102 249,142 637,260 923,260zm0 -195c236,-11 777,-249 917,-401 -485,130 -530,105 -917,63 -387,42 -432,67 -916,-63 139,152 680,390 916,401zm0 -389c251,-26 548,-269 713,-450 -176,25 -323,86 -713,-78 -390,164 -537,103 -712,78 164,181 461,424 712,450zm0 -602c198,-93 299,-309 333,-441 -415,-173 24,-470 61,-47 233,61 445,-114 533,-175 2,-133 -201,-450 -328,-459 -62,67 -211,175 -281,39 -19,-112 132,-136 246,-123 102,-123 63,-401 -7,-529 -142,-11 -438,19 -517,164 180,360 -254,370 -90,0 -90,-135 -363,-182 -506,-164 -88,141 -89,425 -13,530 394,-88 252,387 -30,83 -123,30 -330,326 -327,459 87,61 299,236 532,175 37,-423 476,-126 61,47 35,132 135,348 333,441zm0 -1522c-108,220 102,218 0,0zm-1 -100c115,-119 268,-189 527,-185 -47,-105 -378,-408 -526,-413 -148,5 -479,308 -526,413 260,-4 410,66 525,185zm1 -676c359,-87 459,-85 831,3 -165,-213 -551,-383 -831,-427 -280,44 -666,214 -831,427 373,-88 472,-90 831,-3zm0 -490c488,-28 618,-1 940,101 -298,-221 -762,-357 -940,-349l0 0 0 0 0 0 0 0c-178,-8 -642,128 -939,349 322,-102 451,-129 939,-101zm0 -302l0 0 0 0 0 0c218,1 484,43 882,151 -340,-145 -614,-205 -882,-203l0 0c-268,-2 -541,58 -882,203 399,-108 664,-150 882,-151zm-336 71c-192,45 -596,229 -797,426 -465,240 -573,493 -755,706 122,-333 359,-611 630,-831 259,-176 656,-279 922,-301l0 0zm143 271c-272,109 -499,159 -776,507 -203,82 -579,399 -690,591 45,-392 437,-827 553,-905 164,-83 400,-217 913,-193l0 0zm-1115 307c-176,240 -346,478 -430,927 -169,297 -218,647 -190,993 -159,-377 -158,-804 -19,-1150 100,-247 421,-650 639,-770l0 0zm-417 171c-197,282 -420,838 -448,1290 -55,-366 186,-1061 448,-1290l0 0zm1626 15c-365,164 -517,456 -523,458 -348,47 -438,164 -593,327 -17,-240 140,-552 292,-724 247,-94 570,-129 824,-61zm-949 119c-148,192 -251,523 -237,768 -207,297 -212,506 -263,775 -117,-196 -199,-671 -137,-896 36,-208 451,-562 637,-647l0 0zm400 412c-43,165 -80,319 13,542 -178,124 -283,259 -358,465 -144,-162 -213,-411 -232,-640 142,-200 341,-366 577,-367l0 0zm-1421 382c-63,368 52,793 169,1021 114,469 257,658 415,844 -277,-183 -495,-541 -611,-927 -79,-336 -75,-686 27,-938zm313 3c3,335 56,574 216,869 49,459 152,613 338,843 -352,-176 -592,-557 -653,-737 -65,-193 -16,-826 99,-975l0 0zm475 54c68,349 96,397 277,652 -15,268 33,498 129,652 -141,-35 -586,-338 -611,-506 -29,-140 76,-668 205,-798l0 0zm740 132c290,-37 126,198 0,0zm210 649c-11,-263 279,-115 0,0zm-65 86c57,246 166,322 316,449 -225,120 -584,94 -702,36 -119,-129 -191,-468 -161,-640 142,98 298,185 547,155zm-429 523c148,169 361,391 708,520 -306,52 -817,-52 -915,-148 -237,-205 -395,-494 -439,-830 61,88 366,354 646,458zm-239 417c300,268 504,344 850,472 -359,15 -803,-95 -1021,-287 -195,-155 -494,-514 -566,-848 111,162 308,424 737,663zm-186 225c84,84 317,254 740,384 -688,-113 -1224,-636 -1336,-931 137,179 388,425 596,547zm1586 -3766c192,45 597,229 797,426 465,240 574,493 755,706 -121,-333 -359,-611 -629,-831 -260,-176 -656,-279 -923,-301l0 0zm-143 271c272,109 500,159 777,507 202,82 579,399 689,591 -45,-392 -437,-827 -552,-905 -165,-83 -401,-217 -914,-193l0 0zm1116 307c175,240 345,478 429,927 169,297 218,647 191,993 158,-377 158,-804 18,-1150 -99,-247 -421,-650 -638,-770l0 0zm417 171c196,282 419,838 447,1290 56,-366 -185,-1061 -447,-1290l0 0zm-1627 15c366,164 517,456 523,458 348,47 438,164 593,327 17,-240 -139,-552 -292,-724 -247,-94 -570,-129 -824,-61zm949 119c148,192 251,523 238,768 206,297 212,506 262,775 117,-196 199,-671 138,-896 -37,-208 -452,-562 -638,-647l0 0zm-399 412c42,165 85,320 -8,543 179,124 278,258 353,464 143,-162 213,-411 231,-640 -142,-200 -341,-366 -576,-367l0 0zm1420 382c64,368 -52,793 -169,1021 -113,469 -256,658 -415,844 277,-183 495,-541 611,-927 79,-336 75,-686 -27,-938zm-312 3c-4,335 -57,574 -217,869 -49,459 -151,613 -338,843 352,-176 592,-557 653,-737 65,-193 16,-826 -98,-975l0 0zm-475 54c-69,349 -97,397 -277,652 14,268 -33,498 -129,652 140,-35 586,-338 611,-506 29,-140 -76,-668 -205,-798l0 0zm-750 130c-311,-18 -100,191 0,0zm-200 651c10,-263 -280,-115 0,0zm64 86c-56,246 -166,322 -315,449 224,120 584,94 702,36 118,-129 190,-468 161,-640 -143,98 -298,185 -548,155zm430 523c-148,169 -361,391 -709,520 307,52 818,-52 916,-148 236,-205 394,-494 439,-830 -61,88 -366,354 -646,458zm239 417c-301,268 -505,344 -851,472 359,15 803,-95 1021,-287 195,-155 495,-514 566,-848 -111,162 -307,424 -736,663zm185 225c-84,84 -316,254 -740,384 688,-113 1224,-636 1336,-931 -136,179 -387,425 -596,547z"  fill="White" fill-rule="evenodd" />
</g>




</svg>
