<?xml version="1.0"?>
<svg viewBox="0 0 1185 847" xmlns="http://www.w3.org/2000/svg">
<defs>

  <style><![CDATA[
    .sprite { display: none; }
    .sprite:target { display: inline; }
  ]]></style>

</defs>



<g class="sprite" id="Red4">
  <path d="M168 528c84,0 152,68 152,152 0,84 -68,152 -152,152 -84,0 -152,-68 -152,-152 0,-84 68,-152 152,-152zm852 -14c84,0 152,68 152,152 0,84 -68,152 -152,152 -84,0 -151,-70 -151,-154 0,-84 67,-150 151,-150zm49 82c14,0 26,15 26,34 0,19 -12,34 -26,34 -14,0 -25,-15 -25,-34 0,-19 11,-34 25,-34zm-98 1c14,0 25,15 25,34 0,19 -11,34 -25,34 -14,0 -25,-15 -25,-34 0,-19 11,-34 25,-34zm158 152c0,0 -31,-5 -106,-5 -74,-1 -78,5 -108,5 0,0 55,-30 111,-32 57,-1 103,32 103,32zm-921 -331c0,-99 0,-198 0,-297 0,-55 44,-99 99,-99 178,0 356,0 534,0 55,0 99,44 99,99 0,99 0,198 0,297 0,55 -44,99 -99,99l-12 0 15 125 -151 -125 -194 0c-79,56 -87,73 -158,123 16,-40 11,-63 28,-124 -16,0 -46,1 -62,1 -55,0 -99,-44 -99,-99zm561 -126l0 0c-1,-54 -1,-107 0,-161 -36,0 -72,0 -108,0 0,54 0,107 0,161 36,0 72,0 108,0zm-222 175l0 0c3,-2 6,-4 7,-7 1,-19 -3,-37 -1,-55 1,-10 6,-20 11,-30 9,-17 20,-33 32,-48 6,-8 12,-16 20,-23 8,-7 18,-13 27,-19 0,-44 0,-87 0,-131 -4,-1 -9,0 -13,-2 -9,-4 -16,-12 -26,-12 -57,0 -113,0 -170,0 -6,0 -12,2 -17,5 -9,6 -12,19 -8,29 2,6 6,10 12,12 -4,0 -8,0 -11,2 -12,7 -17,22 -11,34 2,6 8,9 13,12 -4,0 -8,0 -12,3 -10,7 -14,21 -9,31 3,7 9,11 16,13 -7,0 -14,0 -20,4 -11,7 -14,22 -8,33 4,6 11,9 17,9 39,0 79,0 118,0 -7,29 -15,60 -12,90 1,12 2,24 7,36 2,6 6,12 12,15 8,4 18,3 26,-1zm-333 145c14,0 25,16 25,34 0,19 -11,34 -25,34 -14,0 -25,-15 -25,-34 0,-18 11,-34 25,-34zm-99 2c14,0 26,15 26,34 0,18 -12,34 -26,34 -13,0 -25,-16 -25,-34 0,-19 12,-34 25,-34zm158 143c0,0 -26,-7 -105,-4 -79,4 -68,5 -112,3 0,0 58,-23 114,-24 56,-1 103,25 103,25z" fill="Red" fill-rule="evenodd" />
</g>






<g class="sprite" id="Green5">
  <path d="M230 435c0,-104 0,-208 0,-311 0,-58 44,-104 98,-104 178,0 355,0 533,0 54,0 98,46 98,104 0,103 0,207 0,311 0,57 -44,104 -98,104l-48 0 48 104 -173 -104 -176 0c-84,52 -90,59 -168,106 21,-44 32,-62 46,-106 -15,0 -46,0 -62,0 -54,0 -98,-47 -98,-104zm-55 80c83,0 148,77 148,165 0,88 -75,153 -159,153 -84,0 -148,-71 -148,-159 0,-88 75,-159 159,-159zm38 86c14,0 25,16 25,35 0,20 -11,36 -25,36 -14,0 -25,-16 -25,-36 0,-19 11,-35 25,-35zm-98 1c14,0 25,16 25,36 0,19 -11,35 -25,35 -14,0 -26,-16 -26,-35 0,-20 12,-36 26,-36zm158 118c0,0 -19,51 -98,55 -78,4 -106,-36 -116,-46 0,0 56,24 112,22 56,-1 102,-31 102,-31zm753 -213c84,0 152,72 152,160 0,88 -68,159 -152,159 -84,0 -149,-74 -149,-162 0,-88 65,-157 149,-157zm49 87c14,0 25,16 25,35 0,20 -11,36 -25,36 -14,0 -25,-16 -25,-36 0,-19 11,-35 25,-35zm-98 1c14,0 25,16 25,36 0,19 -11,35 -25,35 -14,0 -25,-16 -25,-35 0,-20 11,-36 25,-36zm159 118c0,0 -19,51 -98,55 -79,4 -107,-36 -116,-46 0,0 55,24 111,23 56,-2 103,-32 103,-32zm-745 -443l0 0c0,56 0,112 0,168 36,0 72,0 107,0 0,-56 0,-112 0,-168 -35,0 -71,0 -107,0zm220 -184l0 0c-2,2 -6,4 -6,8 -1,19 3,38 1,57 -1,11 -6,21 -11,31 -9,18 -20,35 -32,51 -6,8 -12,16 -20,23 -8,8 -18,14 -27,20 0,46 0,92 0,138 4,1 9,-1 13,1 9,5 16,13 26,13 57,0 113,0 169,0 6,0 12,-1 17,-5 9,-7 12,-20 9,-30 -2,-6 -7,-11 -12,-13 3,0 7,0 11,-2 11,-7 16,-23 11,-36 -3,-6 -8,-9 -14,-12 4,0 9,0 12,-3 10,-7 14,-22 9,-33 -3,-6 -9,-11 -15,-13 6,-1 14,0 19,-5 11,-7 14,-23 8,-34 -3,-6 -10,-9 -17,-9 -39,0 -78,0 -117,0 7,-31 15,-63 12,-95 -1,-13 -3,-25 -7,-37 -2,-7 -6,-13 -12,-16 -8,-4 -18,-3 -27,1z"  fill="Lime" fill-rule="evenodd" />
</g>




</svg>
